<mxfile host="app.diagrams.net" modified="2023-10-23T11:09:19.987Z" agent="Mozilla/5.0 (Macintosh; Intel Mac OS X 10_15_7) AppleWebKit/537.36 (KHTML, like Gecko) Chrome/117.0.0.0 Safari/537.36" version="22.0.6" etag="acHeYrSO47eRxRqBO15_" type="github">
  <diagram name="Page-1" id="fqU02VX93y9pClqJTq61">
    <mxGraphModel>
      <root>
        <mxCell id="0" />
        <mxCell id="1" parent="0" />
      </root>
    </mxGraphModel>
  </diagram>
</mxfile>
